<svg width="98" height="100" viewBox="0 0 98 100" fill="none" xmlns="http://www.w3.org/2000/svg">
<g id="Vector">
<g id="Vector_2">
<path d="M41.8653 39.793C40.0539 37.5708 40.387 34.3016 42.6092 32.4903C44.8314 30.6789 48.1006 31.012 49.9119 33.2342L52.0981 35.9164C50.2868 33.6942 50.6199 30.425 52.8421 28.6137C55.0643 26.8023 58.3335 27.1354 60.1448 29.3576L63.4242 33.3809L62.2633 31.9566C60.4519 29.7344 60.785 26.4652 63.0072 24.6539C65.2294 22.8426 68.4986 23.1756 70.3099 25.3978L81.309 38.892C90.3645 50.0017 88.6991 66.3501 77.5894 75.4056C72.0346 79.9334 65.1701 81.7809 58.5622 81.109L29.3885 74.7147C26.8203 74.1518 25.0836 71.7527 25.3488 69.137C25.6384 66.2938 28.1771 64.2245 31.0203 64.5141L41.3049 65.5619C44.5936 65.8969 46.6441 62.0894 44.5563 59.5278L39.283 53.0584L20.6997 30.2596C18.8884 28.0374 19.2214 24.7682 21.4436 22.9569C23.6658 21.1455 26.935 21.4786 28.7463 23.7008L44.0502 42.4762" fill="white"/>
<path d="M41.8653 39.793C40.0539 37.5708 40.387 34.3016 42.6092 32.4903C44.8314 30.6789 48.1006 31.012 49.9119 33.2342L52.0981 35.9164C50.2868 33.6942 50.6198 30.425 52.8421 28.6137C55.0643 26.8023 58.3335 27.1354 60.1448 29.3576L63.4242 33.3809L62.2633 31.9566C60.4519 29.7344 60.785 26.4652 63.0072 24.6539C65.2294 22.8426 68.4986 23.1756 70.3099 25.3978L81.309 38.892C90.3645 50.0017 88.6991 66.3501 77.5894 75.4056C72.0346 79.9334 65.1701 81.7809 58.5622 81.109L29.3885 74.7147C26.8203 74.1518 25.0836 71.7527 25.3488 69.137C25.6384 66.2938 28.1771 64.2245 31.0203 64.5141L41.3049 65.5619C44.5936 65.8969 46.6441 62.0894 44.5563 59.5278L39.283 53.0584L20.6997 30.2596C18.8884 28.0374 19.2214 24.7682 21.4436 22.9569C23.6658 21.1455 26.935 21.4786 28.7463 23.7008L44.0502 42.4762" stroke="#999999" stroke-width="3.46035" stroke-miterlimit="10" stroke-linecap="round" stroke-linejoin="round"/>
</g>
</g>
</svg>
